<?xml version="1.0" encoding="utf-8"?>
<!-- Generator: Adobe Illustrator 25.4.1, SVG Export Plug-In . SVG Version: 6.00 Build 0)  -->
<svg version="1.1" id="Layer_1" xmlns="http://www.w3.org/2000/svg" xmlns:xlink="http://www.w3.org/1999/xlink" x="0px" y="0px"
	 viewBox="0 0 64.1 64.1" style="enable-background:new 0 0 64.1 64.1;" xml:space="preserve">
<style type="text/css">
	.st0{fill:#FFFFFF;}
</style>
<path class="st0" d="M36.2,40.4c-1.7,1.3-3.6,2.3-5.6,3.1c-2.5,0.9-5.1,1.3-7.7,1.3c-6.1,0-11.3-2.1-15.6-6.4
	c-4.3-4.2-6.4-9.5-6.4-15.6c0-6.1,2.1-11.3,6.4-15.6c4.2-4.2,9.5-6.4,15.6-6.4c6.1,0,11.3,2.1,15.6,6.4c4.3,4.2,6.4,9.5,6.4,15.6
	c0,2.6-0.5,5.2-1.4,7.8c-0.8,2.1-1.8,4-3.1,5.6l23.2,23l-4.2,4.2L36.2,40.4z M22.9,6.6c-4.6,0-8.4,1.5-11.5,4.7
	c-3.1,3.1-4.7,6.9-4.7,11.5c0,4.6,1.5,8.3,4.7,11.5c3.2,3.1,6.9,4.6,11.5,4.6s8.4-1.5,11.5-4.6c3.1-3.1,4.7-6.9,4.7-11.5
	c0-4.6-1.5-8.4-4.7-11.5C31.3,8.1,27.5,6.6,22.9,6.6z M20,32.5v-6.9h-6.8v-5.8H20V13h5.8v6.8h6.8v5.8h-6.8v6.9H20z"/>
<path class="st0" d="M59.4,61.3l-23-23c-1.8,1.6-3.9,2.8-6.3,3.7c-2.4,0.8-4.8,1.3-7.2,1.3c-5.7,0-10.5-2-14.5-5.9
	c-4-4-6-8.8-6-14.5s2-10.5,5.9-14.5s8.8-5.9,14.5-5.9s10.5,2,14.5,5.9s6,8.8,6,14.5c0,2.5-0.4,4.9-1.3,7.2s-2.1,4.5-3.7,6.3
	l23.1,22.9L59.4,61.3z M22.9,40.4c5,0,9.2-1.7,12.6-5.1c3.4-3.4,5.1-7.6,5.1-12.5s-1.7-9.2-5.1-12.6c-3.4-3.4-7.6-5.1-12.6-5.1
	s-9.2,1.7-12.6,5.1s-5.1,7.6-5.1,12.6s1.7,9.2,5.1,12.5S18,40.4,22.9,40.4z M21.5,31v-6.9h-6.8v-2.7h6.8v-6.8h2.8v6.8h6.8v2.7h-6.8
	V31H21.5z"/>
</svg>
